<svg width="25" height="25" viewBox="0 0 25 25" fill="none" xmlns="http://www.w3.org/2000/svg">
<path d="M6.09391 17.8122C6.97933 17.1351 7.96891 16.6012 9.06266 16.2106C10.1564 15.82 11.3022 15.6247 12.5002 15.6247C13.6981 15.6247 14.8439 15.82 15.9377 16.2106C17.0314 16.6012 18.021 17.1351 18.9064 17.8122C19.5141 17.1004 19.9871 16.2931 20.3257 15.3903C20.6642 14.4875 20.8335 13.524 20.8335 12.4997C20.8335 10.1906 20.0219 8.2245 18.3986 6.60124C16.7753 4.97797 14.8092 4.16634 12.5002 4.16634C10.1911 4.16634 8.22499 4.97797 6.60173 6.60124C4.97846 8.2245 4.16683 10.1906 4.16683 12.4997C4.16683 13.524 4.3361 14.4875 4.67464 15.3903C5.01318 16.2931 5.48627 17.1004 6.09391 17.8122ZM12.5002 13.5413C11.4759 13.5413 10.6121 13.1898 9.90902 12.4867C9.20589 11.7835 8.85433 10.9198 8.85433 9.89551C8.85433 8.8712 9.20589 8.00749 9.90902 7.30436C10.6121 6.60124 11.4759 6.24967 12.5002 6.24967C13.5245 6.24967 14.3882 6.60124 15.0913 7.30436C15.7944 8.00749 16.146 8.8712 16.146 9.89551C16.146 10.9198 15.7944 11.7835 15.0913 12.4867C14.3882 13.1898 13.5245 13.5413 12.5002 13.5413ZM12.5002 22.9163C11.0592 22.9163 9.70502 22.6429 8.43766 22.096C7.1703 21.5492 6.06787 20.807 5.13037 19.8695C4.19287 18.932 3.45068 17.8295 2.90381 16.5622C2.35693 15.2948 2.0835 13.9406 2.0835 12.4997C2.0835 11.0587 2.35693 9.70454 2.90381 8.43717C3.45068 7.16981 4.19287 6.06738 5.13037 5.12988C6.06787 4.19238 7.1703 3.4502 8.43766 2.90332C9.70502 2.35645 11.0592 2.08301 12.5002 2.08301C13.9411 2.08301 15.2953 2.35645 16.5627 2.90332C17.83 3.4502 18.9325 4.19238 19.87 5.12988C20.8075 6.06738 21.5496 7.16981 22.0965 8.43717C22.6434 9.70454 22.9168 11.0587 22.9168 12.4997C22.9168 13.9406 22.6434 15.2948 22.0965 16.5622C21.5496 17.8295 20.8075 18.932 19.87 19.8695C18.9325 20.807 17.83 21.5492 16.5627 22.096C15.2953 22.6429 13.9411 22.9163 12.5002 22.9163Z" fill="#D4D5D6"/>
</svg>
