<svg width="459" height="789" viewBox="0 0 459 789" fill="none" xmlns="http://www.w3.org/2000/svg">
<mask id="mask0_1265_1468" style="mask-type:alpha" maskUnits="userSpaceOnUse" x="-403" y="0" width="809" height="789">
<mask id="path-1-outside-1_1265_1468" maskUnits="userSpaceOnUse" x="-403.722" y="-0.96945" width="810.888" height="790.911" fill="black">
<rect fill="white" x="-403.722" y="-0.96945" width="810.888" height="790.911"/>
<path d="M1.36065 592.011L-24.268 788.457L-23.8467 590.431L-74.4807 782.194L-48.852 585.748L-123.694 769.92L-73.06 577.963L-170.916 751.635L-95.8753 567.464L-215.352 727.729L-117.298 554.057L-256.21 698.396L-136.931 538.324L-293.29 664.412L-154.18 520.267L-325.602 626.167L-169.045 500.079L-352.749 584.242L-181.327 478.343L-374.335 539.415L-190.631 455.252L-389.963 492.267L-196.955 431.195L-399.436 443.574L-200.104 406.753L-402.557 394.112L-200.076 381.927L-399.325 344.658L-196.872 357.298L-389.742 295.986L-190.493 333.255L-374.008 248.679L-181.138 310.185L-352.321 203.9L-168.807 288.477L-325.08 162.037L-153.897 268.516L-292.682 123.865L-136.607 250.498L-255.525 89.9646L-116.938 234.616L-214.602 60.9176L-95.4859 221.451L-170.112 37.1115L-72.6468 210.809L-122.849 18.9331L-48.4216 203.273L-73.6079 6.57542L-23.4058 198.646L-23.3812 0.425457L1.80503 197.123L27.4339 0.482641L27.2109 198.703L77.8452 6.74586L52.0177 203.386L126.86 19.2141L76.2258 210.977L174.082 37.4988L99.041 221.67L218.518 61.405L120.464 234.883L259.574 90.5443L140.097 250.809L296.456 124.528L157.346 268.866L328.768 162.773L172.211 288.86L355.915 204.697L184.493 310.597L377.501 249.525L193.796 333.688L393.129 296.867L200.121 357.745L402.602 345.56L203.27 382.381L405.722 395.022L203.242 407.207L402.491 444.476L200.038 431.641L392.908 493.148L193.659 455.684L377.174 540.261L184.304 478.754L355.487 585.039L171.973 500.463L328.246 626.903L157.063 520.618L295.848 665.075L139.773 538.636L258.889 698.975L120.104 554.324L217.768 728.216L98.6516 567.682L173.278 752.022L75.8127 578.13L126.015 770.201L51.5873 585.861L76.9723 782.364L26.77 590.488L26.5471 788.514L1.36065 592.011Z"/>
</mask>
<path d="M1.36065 592.011L-24.268 788.457L-23.8467 590.431L-74.4807 782.194L-48.852 585.748L-123.694 769.92L-73.06 577.963L-170.916 751.635L-95.8753 567.464L-215.352 727.729L-117.298 554.057L-256.21 698.396L-136.931 538.324L-293.29 664.412L-154.18 520.267L-325.602 626.167L-169.045 500.079L-352.749 584.242L-181.327 478.343L-374.335 539.415L-190.631 455.252L-389.963 492.267L-196.955 431.195L-399.436 443.574L-200.104 406.753L-402.557 394.112L-200.076 381.927L-399.325 344.658L-196.872 357.298L-389.742 295.986L-190.493 333.255L-374.008 248.679L-181.138 310.185L-352.321 203.9L-168.807 288.477L-325.08 162.037L-153.897 268.516L-292.682 123.865L-136.607 250.498L-255.525 89.9646L-116.938 234.616L-214.602 60.9176L-95.4859 221.451L-170.112 37.1115L-72.6468 210.809L-122.849 18.9331L-48.4216 203.273L-73.6079 6.57542L-23.4058 198.646L-23.3812 0.425457L1.80503 197.123L27.4339 0.482641L27.2109 198.703L77.8452 6.74586L52.0177 203.386L126.86 19.2141L76.2258 210.977L174.082 37.4988L99.041 221.67L218.518 61.405L120.464 234.883L259.574 90.5443L140.097 250.809L296.456 124.528L157.346 268.866L328.768 162.773L172.211 288.86L355.915 204.697L184.493 310.597L377.501 249.525L193.796 333.688L393.129 296.867L200.121 357.745L402.602 345.56L203.27 382.381L405.722 395.022L203.242 407.207L402.491 444.476L200.038 431.641L392.908 493.148L193.659 455.684L377.174 540.261L184.304 478.754L355.487 585.039L171.973 500.463L328.246 626.903L157.063 520.618L295.848 665.075L139.773 538.636L258.889 698.975L120.104 554.324L217.768 728.216L98.6516 567.682L173.278 752.022L75.8127 578.13L126.015 770.201L51.5873 585.861L76.9723 782.364L26.77 590.488L26.5471 788.514L1.36065 592.011Z" stroke="black" stroke-width="2" stroke-miterlimit="10" mask="url(#path-1-outside-1_1265_1468)"/>
</mask>
<g mask="url(#mask0_1265_1468)">
<rect x="1434.37" y="836.452" width="1433.86" height="854.738" rx="45" transform="rotate(-179.936 1434.37 836.452)" fill="black"/>
</g>
<path d="M338.754 217.183L281.939 186.834L338.822 156.369L369.984 100.942L401.02 156.439L457.835 187.032L400.952 217.253L369.79 272.924L338.754 217.183Z" fill="#ef3124"/>
<path d="M187.466 492.498L85.9408 438.265L187.588 383.827L243.271 284.782L298.732 383.952L400.256 438.619L298.61 492.623L242.926 592.103L187.466 492.498Z" fill="#191A23"/>
</svg>
